<svg width="100%" height="100%" viewBox="0 0 1440 900" fill="none" xmlns="http://www.w3.org/2000/svg">
  <defs>
    <linearGradient id="lattice-bg-gradient" x1="0" y1="0" x2="1440" y2="900" gradientUnits="userSpaceOnUse">
      <stop stop-color="#181824"/>
      <stop offset="1" stop-color="#232946"/>
    </linearGradient>
    <filter id="lattice-glow" x="-50%" y="-50%" width="200%" height="200%">
      <feGaussianBlur stdDeviation="10" result="coloredBlur"/>
      <feMerge>
        <feMergeNode in="coloredBlur"/>
        <feMergeNode in="SourceGraphic"/>
      </feMerge>
    </filter>
  </defs>
  <rect width="1440" height="900" fill="url(#lattice-bg-gradient)"/>
  <g filter="url(#lattice-glow)">
    <!-- Subtle lattice lines -->
    <g stroke="#00fff1" stroke-width="1.2" opacity="0.13">
      <!-- Vertical lines -->
      <line x1="180" y1="0" x2="180" y2="900" />
      <line x1="360" y1="0" x2="360" y2="900" />
      <line x1="540" y1="0" x2="540" y2="900" />
      <line x1="720" y1="0" x2="720" y2="900" />
      <line x1="900" y1="0" x2="900" y2="900" />
      <line x1="1080" y1="0" x2="1080" y2="900" />
      <line x1="1260" y1="0" x2="1260" y2="900" />
      <!-- Horizontal lines -->
      <line x1="0" y1="112.5" x2="1440" y2="112.5" />
      <line x1="0" y1="225" x2="1440" y2="225" />
      <line x1="0" y1="337.5" x2="1440" y2="337.5" />
      <line x1="0" y1="450" x2="1440" y2="450" />
      <line x1="0" y1="562.5" x2="1440" y2="562.5" />
      <line x1="0" y1="675" x2="1440" y2="675" />
      <line x1="0" y1="787.5" x2="1440" y2="787.5" />
    </g>
    <!-- Brighter accent diagonals -->
    <g stroke="#00fff1" stroke-width="2.2" opacity="0.18">
      <line x1="0" y1="0" x2="1440" y2="900" />
      <line x1="0" y1="900" x2="1440" y2="0" />
      <line x1="0" y1="450" x2="720" y2="900" />
      <line x1="720" y1="0" x2="1440" y2="450" />
    </g>
    <!-- Lattice nodes -->
    <g>
      <circle cx="180" cy="112.5" r="2.5" fill="#00fff1" opacity="0.22" />
      <circle cx="360" cy="225" r="2.5" fill="#00fff1" opacity="0.22" />
      <circle cx="540" cy="337.5" r="2.5" fill="#00fff1" opacity="0.22" />
      <circle cx="720" cy="450" r="3.5" fill="#00fff1" opacity="0.28" />
      <circle cx="900" cy="562.5" r="2.5" fill="#00fff1" opacity="0.22" />
      <circle cx="1080" cy="675" r="2.5" fill="#00fff1" opacity="0.22" />
      <circle cx="1260" cy="787.5" r="2.5" fill="#00fff1" opacity="0.22" />
    </g>
  </g>
</svg>
